<svg width="20" height="24" viewBox="0 0 20 24" fill="none" xmlns="http://www.w3.org/2000/svg">
<g clip-path="url(#clip0_3_202)">
<path d="M16.2895 12.7261C16.3232 16.3512 19.4697 17.5576 19.5045 17.573C19.4779 17.658 19.0018 19.292 17.8469 20.9799C16.8485 22.4392 15.8122 23.893 14.1798 23.9231C12.576 23.9527 12.0602 22.972 10.2264 22.972C8.39322 22.972 7.82019 23.893 6.30187 23.9527C4.72625 24.0123 3.5264 22.3748 2.51978 20.9208C0.462633 17.9469 -1.10941 12.517 1.00145 8.85181C2.05006 7.03162 3.92412 5.87909 5.9581 5.84952C7.5053 5.82004 8.96572 6.89044 9.91155 6.89044C10.8568 6.89044 12.6315 5.6032 14.4971 5.79223C15.2781 5.82476 17.4706 6.10766 18.8783 8.16831C18.7648 8.23863 16.2623 9.69547 16.2895 12.7262M13.2752 3.82469C14.1118 2.81211 14.6747 1.40259 14.5211 0C13.3154 0.0484571 11.8574 0.803505 10.9925 1.81547C10.2174 2.7117 9.5386 4.14606 9.72176 5.52084C11.0658 5.62484 12.4386 4.83787 13.2752 3.82469Z" fill="black"/>
</g>
<defs>
<clipPath id="clip0_3_202">
<rect width="19.5048" height="24" fill="white"/>
</clipPath>
</defs>
</svg>
